<svg width="258" height="297" viewBox="0 0 258 297" fill="none" xmlns="https://www.w3.org/2000/svg">
<path d="M3.05176e-05 169.695V296.967H136.589C213.507 296.967 257.517 223.419 257.517 176.039V0H202.405L165.136 42.0273C43.8116 42.0273 3.05176e-05 109.231 3.05176e-05 169.695Z" fill="#52B788"/>
<path d="M126.839 170.725C79.6433 131.325 8.9209 123.901 8.9209 123.901C3.43276 137.719 1.54753 146.642 0 164.343V296.967H139.959C157.198 295.864 166.414 293.847 181.986 287.649C181.986 287.649 174.035 210.126 126.839 170.725Z" fill="url(#paint0_linear)" fill-opacity="0.3"/>
<rect x="45.5957" y="168.704" width="38.8555" height="84.0547" fill="white"/>
<rect x="105.465" y="97.3369" width="38.8555" height="155.422" fill="white"/>
<rect x="165.334" y="0.198242" width="38.8555" height="252.561" fill="white"/>
<defs>
<linearGradient id="paint0_linear" x1="90.9932" y1="123.901" x2="90.9932" y2="296.967" gradientUnits="userSpaceOnUse">
<stop stop-color="#52B788"/>
<stop offset="1" stop-color="white" stop-opacity="0.28"/>
</linearGradient>
</defs>
</svg>
