<svg width="587" height="417" viewBox="0 0 587 417" fill="none" xmlns="https://www.w3.org/2000/svg">
<path d="M117.11 376.464C127.774 390.736 149.911 392.238 149.911 392.238C149.911 392.238 154.758 370.601 144.093 356.329C133.429 342.058 111.292 340.555 111.292 340.555C111.292 340.555 106.445 362.193 117.11 376.464Z" fill="#E6E6E6"/>
<path d="M171.436 381.83C164.399 391.247 149.791 392.238 149.791 392.238C149.791 392.238 146.593 377.961 153.63 368.543C160.667 359.126 175.275 358.134 175.275 358.134C175.275 358.134 178.473 372.412 171.436 381.83Z" fill="#E6E6E6"/>
<path d="M586.606 391.551H95.5315V393.207H586.606V391.551Z" fill="#3F3D56"/>
<path d="M565.771 87.7367L570.049 89.8743C570.049 89.8743 593.222 147.944 585.379 161.838C577.536 175.732 552.937 201.739 552.937 201.739L548.302 188.558L567.257 147.493L565.771 87.7367Z" fill="#52B788"/>
<path opacity="0.1" d="M565.771 87.7367L570.049 89.8743C570.049 89.8743 593.222 147.944 585.379 161.838C577.536 175.732 552.937 201.739 552.937 201.739L548.302 188.558L567.257 147.493L565.771 87.7367Z" fill="black"/>
<path d="M561.137 378.087C561.137 378.087 567.197 391.981 563.989 393.05C560.78 394.118 556.859 394.118 552.937 394.118C549.016 394.118 544.381 392.693 543.668 391.268C542.955 389.843 546.52 380.581 546.52 380.581L561.137 378.087Z" fill="#52B788"/>
<path d="M479.497 385.212C479.497 385.212 483.418 397.681 481.636 398.394C479.853 399.106 474.149 402.312 470.94 401.244C467.732 400.175 462.741 397.681 461.671 396.612C460.602 395.543 461.671 389.843 461.671 389.843L466.662 382.718L479.497 385.212Z" fill="#52B788"/>
<path d="M549.729 199.958L554.839 201.739C554.839 201.739 556.146 213.852 554.72 218.127C553.294 222.402 550.085 253.397 551.868 259.809C553.65 266.222 552.581 276.553 552.581 276.553C552.581 276.553 563.276 311.467 561.137 318.948C558.998 326.429 559.354 337.117 561.493 342.461C563.632 347.805 565.415 349.942 564.345 354.218C563.276 358.493 561.137 360.63 563.276 364.193C565.415 367.755 569.693 368.824 567.554 372.03C565.415 375.237 563.276 377.731 563.989 379.868C564.702 382.006 545.094 385.924 543.311 382.718C543.311 382.718 549.016 377.731 543.311 374.88C537.607 372.03 539.39 361.343 539.39 361.343C539.39 361.343 529.408 320.373 529.764 317.167C530.121 313.96 514.078 264.084 514.078 264.084C514.078 264.084 490.548 335.336 489.122 338.542C487.696 341.749 490.905 349.586 489.122 351.724C487.34 353.861 489.835 359.205 487.34 361.343C484.844 363.48 491.618 371.318 487.34 374.168C483.062 377.018 480.923 385.924 481.279 387.706C481.636 389.487 463.454 387.35 463.454 384.856C463.454 382.362 463.81 380.224 462.028 375.949C460.245 371.674 459.176 368.824 460.602 367.399C462.028 365.974 463.097 364.193 461.671 359.205C460.245 354.218 463.81 338.898 462.741 336.048C461.671 333.198 462.028 313.96 462.028 313.96C462.028 313.96 465.593 285.816 464.523 281.185C463.454 276.553 464.523 275.485 464.88 273.703C465.236 271.922 467.375 252.684 468.801 249.834C470.227 246.984 472.01 198.177 480.21 195.683C488.409 193.189 549.729 199.958 549.729 199.958Z" fill="#3F3D56"/>
<path d="M552.581 390.912C552.581 390.912 565.415 388.775 566.128 390.912C566.841 393.05 568.98 409.794 563.989 410.15C558.998 410.506 550.441 411.575 549.015 408.369C547.589 405.162 540.816 403.025 540.816 403.025C540.816 403.025 530.833 400.175 530.833 396.969C530.833 393.762 531.19 388.775 532.973 388.418C534.755 388.062 541.885 384.143 541.885 382.718C541.885 381.293 552.581 390.912 552.581 390.912Z" fill="#3F3D56"/>
<path d="M472.366 396.612C472.366 396.612 481.636 393.762 483.775 395.543C485.914 397.325 488.766 416.919 483.775 416.563C478.784 416.206 465.593 418.344 464.88 415.494C464.167 412.644 454.541 411.931 454.541 411.931C454.541 411.931 444.202 406.944 444.915 401.6C445.628 396.256 446.698 394.475 450.976 394.118C455.254 393.762 458.463 388.775 458.819 388.418C459.176 388.062 462.319 385.458 462.708 388.363C463.097 391.268 467.732 397.681 472.366 396.612Z" fill="#3F3D56"/>
<path d="M501.6 51.3984C513.611 51.3984 523.347 41.6688 523.347 29.6667C523.347 17.6646 513.611 7.935 501.6 7.935C489.59 7.935 479.853 17.6646 479.853 29.6667C479.853 41.6688 489.59 51.3984 501.6 51.3984Z" fill="#A0616A"/>
<path d="M520.495 34.6543C520.495 34.6543 521.921 58.5236 527.269 60.6611C532.616 62.7987 500.174 62.7987 500.174 62.7987C500.174 62.7987 499.818 47.8358 495.183 44.2733C490.548 40.7107 520.495 34.6543 520.495 34.6543Z" fill="#A0616A"/>
<path d="M529.051 55.3173C529.051 55.3173 506.948 47.1234 499.104 59.9486C499.104 59.9486 474.149 71.7051 472.366 78.8303C470.584 85.9554 487.34 139.394 487.34 139.394C487.34 139.394 487.34 183.57 483.775 188.201C480.21 192.833 473.436 197.82 478.071 198.889C482.705 199.958 555.433 207.796 555.076 203.164C554.72 198.533 550.085 194.614 555.076 191.764C560.067 188.914 555.789 185.708 558.998 176.445C562.206 167.182 570.049 90.5868 570.049 90.5868C570.049 90.5868 564.702 80.9679 563.632 79.8991C562.563 78.8303 529.051 55.3173 529.051 55.3173Z" fill="#52B788"/>
<path d="M465.236 211.358C465.236 211.358 451.332 242.709 463.454 246.984C475.575 251.259 474.862 213.852 474.862 213.852L465.236 211.358Z" fill="#A0616A"/>
<path d="M512.032 33.7084C510.771 31.1843 508.884 28.2725 506.065 28.4262C504.64 28.5039 503.411 29.3902 502.141 30.0407C500.87 30.6913 499.243 31.0946 498.081 30.2655C496.382 29.0527 496.909 26.1764 495.389 24.7456C493.73 23.1838 490.394 24.0558 489.323 22.0449C488.752 20.9712 489.213 19.6391 488.964 18.4487C487.229 18.5968 485.481 18.3939 483.826 17.8521C482.216 17.2002 480.823 15.6896 480.868 13.9546C480.916 13.3636 481.082 12.788 481.355 12.2618C481.629 11.7355 482.005 11.269 482.461 10.8897C484.652 8.89838 487.822 8.51651 490.527 7.30879C492.679 6.34769 494.55 4.84983 496.665 3.8102C500.306 2.0209 504.506 1.67391 508.551 1.98282C514.685 2.4512 520.887 4.48529 525.335 8.73175C529.783 12.9782 532.137 19.6775 530.219 25.5182C529.132 28.8277 526.828 31.6096 525.543 34.8473C524.755 37.063 524.208 39.3572 523.913 41.6901L523.011 47.2235C523.151 46.3624 521.259 44.2024 520.639 43.6884C519.285 42.5673 517.316 42.9477 516.06 41.9093C514.201 40.3734 513.125 35.8982 512.032 33.7084Z" fill="#3F3D56"/>
<path opacity="0.1" d="M480.566 76.3365L474.862 79.8991C474.862 79.8991 465.593 135.832 466.662 143.669C467.732 151.507 462.384 195.683 464.167 199.245C465.949 202.808 466.662 203.52 466.662 205.658C466.662 207.796 461.671 215.633 464.88 217.058C468.088 218.483 479.853 220.977 479.853 217.058C479.853 213.139 477.714 207.796 481.636 205.302C485.557 202.808 488.409 186.776 488.409 186.776C488.409 186.776 490.192 170.389 491.974 167.182C493.757 163.976 496.252 152.219 496.252 147.232C496.252 142.244 500.531 121.937 498.035 111.606C495.539 101.275 494.826 73.4864 480.566 76.3365Z" fill="black"/>
<path d="M478.07 75.2677L472.366 78.8303C472.366 78.8303 463.097 134.763 464.167 142.6C465.236 150.438 459.889 194.614 461.671 198.177C463.454 201.739 464.167 202.452 464.167 204.589C464.167 206.727 459.176 214.564 462.384 215.989C465.593 217.415 477.358 219.908 477.358 215.989C477.358 212.071 475.218 206.727 479.14 204.233C483.062 201.739 485.914 185.708 485.914 185.708C485.914 185.708 487.696 169.32 489.479 166.113C491.261 162.907 493.757 151.151 493.757 146.163C493.757 141.175 498.035 120.869 495.539 110.537C493.044 100.206 492.331 72.4176 478.07 75.2677Z" fill="#52B788"/>
<path d="M419.759 0H0V210.446H419.759V0Z" fill="#E6E6E6"/>
<path d="M400.484 17.121H19.2747V193.325H400.484V17.121Z" fill="white"/>
<path d="M27.0087 175L26 174.043L77.1486 125.526L93.1976 140.75L121.372 114.023L155.967 146.839L214.814 91.0182L241.563 116.392L300.053 60.909L332.865 92.0332L392.991 35L394 35.9568L332.865 93.9469L300.053 62.8227L241.563 118.305L214.814 92.9319L155.967 148.752L121.372 115.937L93.1976 142.663L77.1486 127.439L27.0087 175Z" fill="#52B788"/>
<path d="M158.5 139C163.194 139 167 142.582 167 147C167 151.418 163.194 155 158.5 155C153.806 155 150 151.418 150 147C150 142.582 153.806 139 158.5 139Z" fill="#52B788"/>
<path d="M213.5 85C218.194 85 222 88.8056 222 93.5C222 98.1944 218.194 102 213.5 102C208.806 102 205 98.1944 205 93.5C205 88.8056 208.806 85 213.5 85Z" fill="#52B788"/>
<path d="M332.5 85C337.194 85 341 88.8056 341 93.5C341 98.1944 337.194 102 332.5 102C327.806 102 324 98.1944 324 93.5C324 88.8056 327.806 85 332.5 85Z" fill="#52B788"/>
</svg>
